<?xml version="1.0" encoding="UTF-8" standalone="no"?>
<svg
   width="522.47491pt"
   height="522.51892pt"
   version="1.1"
   viewBox="0 0 522.47491 522.51892"
   id="svg4"
   sodipodi:docname="global-.svg"
   inkscape:version="1.2 (dc2aedaf03, 2022-05-15)"
   xmlns:inkscape="http://www.inkscape.org/namespaces/inkscape"
   xmlns:sodipodi="http://sodipodi.sourceforge.net/DTD/sodipodi-0.dtd"
   xmlns="http://www.w3.org/2000/svg"
   xmlns:svg="http://www.w3.org/2000/svg">
  <defs
     id="defs8" />
  <sodipodi:namedview
     id="namedview6"
     pagecolor="#505050"
     bordercolor="#eeeeee"
     borderopacity="1"
     inkscape:showpageshadow="0"
     inkscape:pageopacity="0"
     inkscape:pagecheckerboard="0"
     inkscape:deskcolor="#505050"
     inkscape:document-units="pt"
     showgrid="false"
     inkscape:zoom="0.92464286"
     inkscape:cx="93.008883"
     inkscape:cy="361.22055"
     inkscape:window-width="1920"
     inkscape:window-height="1017"
     inkscape:window-x="-8"
     inkscape:window-y="-8"
     inkscape:window-maximized="1"
     inkscape:current-layer="svg4" />
  <path
     d="m 474.13126,109.94545 c -0.65234,-0.93359 -1.457,-1.7344 -2.1289,-2.6523 -4.8789,-6.6445 -10.043,-13.042997 -15.492,-19.187997 -1.4922,-1.6797 -2.9883,-3.3398 -4.5156,-4.9844 -5.6133,-6.0117 -11.5,-11.742 -17.66,-17.191 -1.1367,-1.0078 -2.2031,-2.0547 -3.3398,-3.043 h -0.004 c -15.18,-13.004003 -31.801,-24.230003 -49.539,-33.449003 -0.71094,-0.375 -1.457,-0.69141 -2.1836,-1.0625 v -0.0039 c -7.9023,-4.0117 -16,-7.6211 -24.27,-10.805 -1.8672,-0.67188 -3.5664,-1.3086 -5.3398,-1.8672 -7.3555,-2.6523 -14.82,-4.9727 -22.398,-6.9609 -2.2383,-0.59766 -4.4805,-1.2148 -6.7578,-1.7344 -7.4648,-1.7344 -14.934,-3.0625 -22.566,-4.1445 -2.3164,-0.33594 -4.5938,-0.78516 -6.9258,-1.0625 v -0.0039 c -19.664,-2.3906 -39.547,-2.3906 -59.211,0 -2.332,0.28125 -4.6094,0.72656 -6.9258,1.0625 -7.6328,1.082 -15.176,2.4062 -22.566,4.1445 -2.2773,0.52344 -4.5156,1.1367 -6.7578,1.7344 -7.6289,1.9922 -15.094,4.3125 -22.398,6.9609 -1.8672,0.63281 -3.5664,1.2695 -5.3398,1.8672 v 0.0039 c -8.2695,3.1836 -16.367,6.793 -24.266,10.805 -0.72656,0.375 -1.4766,0.69141 -2.1836,1.0625 v 0.0039 c -17.797,9.207 -34.477,20.434 -49.711,33.449003 -1.1367,0.98828 -2.2031,2.0352 -3.3398,3.043 -6.2227,5.4766 -12.109,11.207 -17.66,17.191 -1.5312,1.6445 -3.0234,3.3047 -4.5156,4.9844 -5.4648,6.1367 -10.629,12.530997 -15.492,19.187997 -0.67188,0.91406 -1.4766,1.7188 -2.1289,2.6523 h -0.004 c -0.0859,0.16406 -0.16016,0.33203 -0.22266,0.50391 -31.406,44.016 -48.289,96.738 -48.289,150.81 0,54.072 16.883,106.79 48.289,150.81 0.0625,0.17188 0.13672,0.33984 0.22266,0.50391 0.65234,0.93359 1.457,1.7344 2.1289,2.6523 4.8672,6.6445 10.031,13.043 15.492,19.188 1.4922,1.6797 2.9883,3.3398 4.5156,4.9844 5.625,6.0117 11.512,11.742 17.66,17.191 1.1367,1.0078 2.2031,2.0547 3.3398,3.043 h 0.004 c 15.18,13.004 31.805,24.23 49.543,33.449 0.71094,0.375 1.457,0.69141 2.1836,1.0625 v 0.004 c 7.8984,4.0117 15.996,7.6211 24.266,10.805 1.8672,0.67188 3.5664,1.3086 5.3398,1.8672 7.3555,2.6523 14.82,4.9727 22.398,6.9609 2.2383,0.59766 4.4805,1.2148 6.7578,1.7344 7.4648,1.7344 14.934,3.0625 22.566,4.1445 2.3164,0.33594 4.5938,0.78516 6.9258,1.0625 v 0.004 c 19.664,2.3906 39.547,2.3906 59.211,0 2.332,-0.28125 4.6094,-0.72656 6.9258,-1.0625 7.6328,-1.082 15.176,-2.4062 22.566,-4.1445 2.2773,-0.52344 4.5156,-1.1367 6.7578,-1.7344 7.6406,-1.9922 15.109,-4.3125 22.398,-6.9609 1.8672,-0.63281 3.5664,-1.2695 5.3398,-1.8672 v -0.004 c 8.2695,-3.1836 16.367,-6.793 24.27,-10.805 0.72656,-0.375 1.4766,-0.69141 2.1836,-1.0625 v -0.004 c 17.734,-9.2188 34.359,-20.445 49.539,-33.449 1.1367,-0.98828 2.2031,-2.0352 3.3398,-3.043 6.2227,-5.4648 12.109,-11.195 17.66,-17.191 1.5312,-1.6445 3.0234,-3.3047 4.5156,-4.9844 5.4648,-6.1484 10.629,-12.543 15.492,-19.188 0.67188,-0.91406 1.4766,-1.7188 2.1289,-2.6523 h 0.004 c 0.0859,-0.16406 0.16016,-0.33203 0.22266,-0.50391 31.406,-44.016 48.289,-96.738 48.289,-150.81 0,-54.072 -16.883,-106.79 -48.289,-150.81 -0.008,-0.16797 -0.0273,-0.33594 -0.0547,-0.50391 z m -21.242,266.8 c -28.613,-14.613 -59.18,-25.035 -90.758,-30.949 5.5781,-21.574 9.0703,-43.637 10.434,-65.875 h 111.81 c -2.8594,34.277 -13.637,67.422 -31.488,96.824 z m -23.746,32.387 c -4.3867,4.9648 -8.9609,9.7617 -13.738,14.297 -1.1758,1.1211 -2.4062,2.1836 -3.6016,3.2656 -4.6055,4.207 -9.3711,8.207 -14.297,12.004 -1.2891,0.98828 -2.5938,1.9609 -3.9023,2.9102 -5.0781,3.7344 -10.305,7.25 -15.68,10.547 l -3.7344,2.2578 c -5.6484,3.2969 -11.449,6.3516 -17.398,9.1641 -1.082,0.50391 -2.1484,1.0625 -3.2305,1.5664 -6.1992,2.8008 -12.523,5.2812 -18.945,7.4648 -0.96875,0.35547 -1.8672,0.74609 -2.9297,1.082 -6.4766,2.1641 -13.066,3.957 -19.785,5.6016 -1.0469,0.24219 -2.0547,0.57813 -3.1172,0.80078 -2.5586,0.55859 -5.207,0.82031 -7.8008,1.2891 l -0.004,0.008 c 20.613,-31.148 37.48,-64.617 50.25,-99.719 27.562,4.9258 54.34,13.527 79.613,25.574 -0.54297,0.63281 -1.1367,1.2305 -1.6992,1.8867 z m -218.4,70.148 c -6.6836,-1.5664 -13.309,-3.3594 -19.785,-5.6016 -0.98828,-0.33594 -1.9609,-0.72656 -2.9297,-1.082 -6.4219,-2.2383 -12.75,-4.7227 -18.945,-7.4648 -1.082,-0.50391 -2.1484,-1.0625 -3.2305,-1.5664 -5.9375,-2.8242 -11.734,-5.8789 -17.398,-9.1641 l -3.7344,-2.2578 c -5.375,-3.2852 -10.602,-6.8008 -15.68,-10.547 -1.3086,-0.95312 -2.6133,-1.8672 -3.9023,-2.9102 -4.9766,-3.7344 -9.7422,-7.7344 -14.297,-12.004 -1.1953,-1.082 -2.4258,-2.1484 -3.6016,-3.2656 -4.7773,-4.5352 -9.332,-9.332 -13.738,-14.297 -0.55859,-0.65234 -1.1562,-1.25 -1.7188,-1.8672 l -0.004,-0.008 c 25.277,-12.047 52.055,-20.648 79.613,-25.574 12.77,35.102 29.637,68.57 50.254,99.719 -2.5938,-0.46484 -5.2461,-0.72656 -7.8008,-1.2891 -1.0508,-0.24219 -2.0586,-0.57812 -3.1016,-0.82031 z m -172.46,-199.36 h 111.81 c 1.3672,22.242 4.8711,44.301 10.453,65.875 -31.586,5.9141 -62.156,16.336 -90.777,30.949 -17.852,-29.402 -28.629,-62.547 -31.488,-96.824 z m 31.488,-134.16 c 28.613,14.613 59.18,25.035 90.758,30.949 -5.5781,21.574 -9.0703,43.637 -10.434,65.875 h -111.81 c 2.8594,-34.277 13.637,-67.422 31.488,-96.824 z m 23.746,-32.387 c 4.3867,-4.9648 8.9609,-9.7617 13.738,-14.296997 1.1758,-1.1211 2.4062,-2.1836 3.6016,-3.2656 4.6055,-4.1953 9.3711,-8.1953 14.297,-12.004 1.2891,-0.98828 2.5938,-1.8672 3.9023,-2.9102 5.0781,-3.7344 10.305,-7.25 15.68,-10.547 l 3.7344,-2.2578 c 5.6641,-3.3086 11.461,-6.3672 17.398,-9.1641 1.082,-0.50391 2.1484,-1.0625 3.2305,-1.5664 6.1992,-2.8008 12.523,-5.2812 18.945,-7.464803 0.96875,-0.35547 1.8672,-0.74609 2.9297,-1.082 6.4766,-2.1641 13.066,-3.957 19.785,-5.6016 1.0469,-0.24219 2.0547,-0.57813 3.1172,-0.80078 2.5586,-0.55859 5.207,-0.82031 7.8008,-1.2891 l 0.004,-0.0078 c -20.621,31.151993 -37.496,64.62899 -50.27,99.73799 -27.562,-4.9297 -54.336,-13.527 -79.613,-25.574 0.5625,-0.65234 1.1562,-1.25 1.7188,-1.9062 z m 218.4,-70.148 c 6.6836,1.5664 13.309,3.3594 19.785,5.6016 0.98828,0.33594 1.9609,0.72656 2.9297,1.082 6.4219,2.238303 12.75,4.722703 18.945,7.464803 1.082,0.50391 2.1484,1.0625 3.2305,1.5664 5.9375,2.8242 11.734,5.8789 17.398,9.1641 l 3.7344,2.2578 c 5.375,3.2852 10.602,6.8008 15.68,10.547 1.3086,0.95312 2.6133,1.8672 3.9023,2.9102 4.9766,3.7344 9.7422,7.7344 14.297,12.004 1.1953,1.082 2.4258,2.1484 3.6016,3.2656 4.7773,4.535197 9.332,9.331997 13.738,14.296997 0.55859,0.65234 1.1562,1.25 1.7188,1.8672 l 0.004,0.008 c -25.277,12.047 -52.055,20.648 -79.613,25.574 -12.77,-35.102 -29.637,-68.569997 -50.254,-99.718998 2.5938,0.46484 5.2461,0.72656 7.8008,1.2891 1.0508,0.24219 2.0586,0.57812 3.1016,0.82031 z m -50.586,292.7 c -21.316,-0.0274 -42.617,1.2227 -63.785,3.7305 -5.3398,-19.531 -8.7578,-39.535 -10.211,-59.73 h 147.99 c -1.4727,20.195 -4.9102,40.203 -10.27,59.73 -21.148,-2.5117 -42.43,-3.7578 -63.727,-3.7305 z m 51.969,40.113 c -13.324,34.336 -30.777,66.926 -51.969,97.047 -21.242,-30.105 -38.715,-62.707 -52.023,-97.066 34.57,-3.7188 69.441,-3.7188 104.01,0 z m -125.96,-133.45 c 1.4727,-20.195 4.9102,-40.203 10.27,-59.73 21.148,2.5117 42.43,3.7578 63.727,3.7305 21.32,-0.004 42.617,-1.2812 63.785,-3.8242 5.3438,19.559 8.7656,39.598 10.211,59.824 z m 73.996,-93.332 c -17.359,-0.0195 -34.707,-0.94922 -51.969,-2.7812 13.324,-34.336 30.777,-66.925997 51.969,-97.047 21.242,30.105003 38.715,62.707 52.023,97.066 -17.281,1.8359 -34.645,2.7578 -52.023,2.7617 z m 111.23,93.332 c -1.3672,-22.242 -4.8711,-44.301 -10.453,-65.875 31.586,-5.9141 62.156,-16.336 90.777,-30.949 17.852,29.402 28.629,62.547 31.488,96.824 z"
     id="path2"
     style="fill:#ffffff" />
</svg>
